<svg id="Layer_1" xmlns="http://www.w3.org/2000/svg" viewBox="0 0 154.4 66.2"><style>.st0{fill:#2672fb}</style><path d="M12 0C9.3 0 6.6.9 4.6 2.6v3.2C6.5 3.7 9.2 2.5 12 2.5c5 0 9.2 4.1 9.2 9.1v7.9c1.9-2.1 2.9-4.7 2.8-7.5.1-6.5-5.1-11.9-11.6-12H12z"/><path d="M2.8 11.8V4.3C1 6.4-.1 9 0 11.8c-.1 6.5 5.1 11.9 11.6 12h.4c2.7 0 5.3-.9 7.4-2.6V18c-1.9 2.1-4.6 3.3-7.5 3.3-5.1 0-9.1-4.1-9.1-9.5zM40.1.4H32v23.1h2.7V2.8H40c3 0 4.6 1.9 4.6 4.3S43 11.4 40 11.4h-3.6v2.4h3.7c4.5 0 7.4-2.8 7.4-6.7S44.6.4 40.1.4zm26.9 5l2-1.5C67.4 1.5 64.7 0 61.9 0c-.9 0-1.7.1-2.5.4V3c.8-.3 1.6-.5 2.4-.5 2.1 0 4.1 1.1 5.2 2.9zM63.9 11l-2.6-1.2c-2.1-1-3.7-1.8-3.7-4.2V1.2c-1.8 1-2.8 2.8-2.8 4.9 0 3.3 2.5 4.9 5.2 6.2l2.6 1.2c2.3 1.1 3.9 1.9 3.9 4.4v4.7c1.8-1.1 2.9-3 2.8-5.1 0-3.2-2-4.9-5.4-6.5zm-8.5 6.4l-2 1.5c1.7 3.1 4.9 5 8.4 5 1 0 2-.2 3-.5v-2.6c-.9.3-1.9.5-2.9.5-3.1 0-5.1-1.8-6.5-3.9zM74.6.4l8.8 23.5h.9l1-2.4L77.6.4zm25.6 15.2l1.5 3.6 7-18.8h-3zM91.2 0L85 15.5l1.3 3.6 5.3-13.5 7.3 18.3h1.1l.8-2.3L92.1 0zM117 16.4l3.7-8.6-1.5-3.3-8.1 19h2.9l1.9-4.7h9.5l-1.1-2.4zM121.1 0l-1 2.2 9.1 21.3h2.9L122.1 0zm12.5.4h19v2.5h-19zm8.1 4.2h2.7v18.9h-2.7zm10.9 17h-.3v.5h.3c.1 0 .2-.1.2-.2 0-.2-.1-.3-.2-.3z"/><path d="M152.6 20.3c-1 0-1.9.8-1.9 1.8s.8 1.9 1.8 1.9 1.9-.8 1.9-1.8-.8-1.8-1.8-1.9zm.4 2.8l-.5-.6h-.3v.6h-.4v-1.9h.8c.3 0 .6.2.7.6v.1c0 .2-.1.4-.3.5l.5.7h-.5z"/><path class="st0" d="M10.7 36.1H12V48h-1.3v-9.1l-2.8 6H6.6l-2.8-6V48H2.5V36.1h1.3l3.4 7.2 3.5-7.2zm9.2 9.2h1.3c-.1 1.7-1.6 3-3.3 2.9h-.1c-1.8.1-3.3-1.2-3.4-2.9v-2.8c-.1-1.8 1.2-3.3 2.9-3.4h.5c1.8-.1 3.3 1.2 3.4 2.9v2h-5.6v.8c-.1 1.1.8 2.1 2 2.2h.2c1 0 1.9-.7 2.1-1.7zm.1-2.9c0-1.2-1-2.2-2.2-2.2-1.2 0-2.2 1-2.2 2.2v.3H20v-.3zm5.1 3.6c0 .6.2.8.8.8h1.3V48H26c-1.6 0-2.1-.6-2.1-2.1v-5.4h-1.2v-1.2h1.2v-2h1.3v2h2.2v1.2h-2.2V46zm5.1-4.1h-1.3c.1-1.7 1.6-3 3.3-2.9h.1c1.8-.1 3.3 1.2 3.4 2.9V48h-1.3v-.9c-.7.8-1.7 1.2-2.7 1.1-1.4.2-2.7-.9-2.9-2.3v-.3c-.1-1.2.7-2.2 1.9-2.5 1.2-.3 2.5-.5 3.7-.5v-.2c.1-1.1-.8-2.1-1.9-2.2h-.2c-1 0-1.9.7-2.1 1.7zm4.3 1.8c-1.2 0-2.4.2-3.6.6-.5.2-.8.7-.8 1.3 0 .8.6 1.4 1.9 1.4 1.3 0 2.5-.7 2.5-2.1v-1.2zm7.6-7.6c2-.1 3.8 1.5 3.8 3.5v4.3c.2 2-1.3 3.8-3.4 4h-4.4V36.1h4zm-2.5 1.3v9.3h2.5c1.4 0 2.5-1 2.5-2.4v-4.1c.1-1.4-.8-2.6-2.2-2.7h-.3l-2.5-.1zm14 7.9h1.3c-.1 1.7-1.6 3-3.3 2.9h-.1c-1.8.1-3.3-1.2-3.4-2.9v-2.8c0-1.9 1.5-3.4 3.4-3.4s3.4 1.5 3.4 3.4V44h-5.6v.8c-.1 1.1.8 2.1 2 2.2h.2c1 0 1.9-.7 2.1-1.7zm0-2.9c0-1.2-1-2.2-2.2-2.2-1.2 0-2.2 1-2.2 2.2v.3h4.3v-.3zm6.1-5.1c-.6 0-.8.2-.8.8v1.1H61v1.2h-2.2V48h-1.3v-7.5h-1.2v-1.2h1.2v-1c0-1.5.5-2.1 2.1-2.1H61v1.2l-1.3-.1zm8 8H69c-.1 1.7-1.6 3-3.3 2.9h-.1c-1.8.1-3.3-1.2-3.4-2.9v-2.8c0-1.9 1.5-3.4 3.4-3.4s3.4 1.5 3.4 3.4V44h-5.6v.8c-.1 1.1.8 2.1 2 2.2h.2c1 0 1.9-.7 2.1-1.7zm0-2.9c0-1.2-1-2.2-2.2-2.2-1.2 0-2.2 1-2.2 2.2v.3h4.3v-.3zm10.4 0V48h-1.3v-5.6c0-1.2-1-2.2-2.2-2.2-1.2 0-2.2 1-2.2 2.2V48h-1.3v-8.8h1.3v.8c.5-.7 1.3-1.1 2.2-1.1 1.7-.2 3.3 1.1 3.5 2.9v.6zm2.2 2.3v-2.3c-.1-1.8 1.2-3.3 2.9-3.4h.5c.9 0 1.7.4 2.2 1.1v-4h1.3V48h-1.3v-.9c-.5.7-1.3 1.1-2.2 1.1-1.7.2-3.3-1.1-3.5-2.9.1-.2.1-.4.1-.6zm1.3 0c0 1.2 1 2.2 2.2 2.2 1.2 0 2.2-1 2.2-2.2v-2.3c0-1.2-1-2.2-2.2-2.2-1.2 0-2.2 1-2.2 2.2v2.3zm13.4.6h1.3c-.1 1.7-1.6 3-3.3 2.9h-.1c-1.8.1-3.3-1.2-3.4-2.9v-2.8c0-1.9 1.5-3.4 3.4-3.4s3.4 1.5 3.4 3.4V44h-5.6v.8c-.1 1.1.8 2.1 2 2.2h.2c1 0 2-.7 2.1-1.7zm.1-2.9c0-1.2-1-2.2-2.2-2.2-1.2 0-2.2 1-2.2 2.2v.3H95v-.3zm4.8-2.2c.5-.7 1.3-1.1 2.2-1.1h.6v1.2h-.7c-1.1-.1-2.1.8-2.2 2V48h-1.3v-8.8h1.3v1zM9.8 57.6H8.5c0-1.3-1.1-2.4-2.4-2.4H6c-1.4 0-2.5 1-2.5 2.4v4.5c-.2 1.4.7 2.6 2.1 2.8H6c1.3.1 2.5-1 2.5-2.3v-.1h1.3c0 2-1.6 3.7-3.6 3.7H6c-2 .1-3.8-1.5-3.8-3.5v-4.8c-.2-2 1.3-3.8 3.4-4h.5c2-.1 3.7 1.4 3.8 3.5-.1.1-.1.1-.1.2zm3.3 6.4c0 .6.2.8.8.8h.2V66h-.3c-1.6 0-2.1-.6-2.1-2.1v-9.8H13l.1 9.9zm9.7-1.3c.1 1.8-1.2 3.3-2.9 3.4h-.5c-1.8.1-3.3-1.2-3.4-2.9v-2.8c-.1-1.8 1.2-3.3 2.9-3.4h.5c1.8-.1 3.3 1.2 3.4 2.9v2.8zm-1.2-2.3c0-1.2-1-2.2-2.2-2.2-1.2 0-2.2 1-2.2 2.2v2.3c0 1.2 1 2.2 2.2 2.2 1.2 0 2.2-1 2.2-2.2v-2.3zm3.4 2.4v-5.6h1.3v5.5c0 1.2.9 2.1 2.1 2.1s2.1-.9 2.1-2.1v-5.5h1.3V66h-1.3v-.9c-.5.7-1.3 1.1-2.1 1.1-1.7.1-3.3-1.2-3.4-2.9v-.5zm9.1-.1v-2.3c-.1-1.7 1.2-3.3 2.9-3.4h.5c.9 0 1.7.4 2.2 1.1v-4H41V66h-1.3v-.9c-.5.7-1.3 1.1-2.2 1.1-1.7.1-3.3-1.2-3.4-2.9v-.6zm1.3 0c0 1.2 1 2.2 2.2 2.2 1.2 0 2.2-1 2.2-2.2v-2.3c0-1.2-1-2.2-2.2-2.2-1.2 0-2.2 1-2.2 2.2v2.3z"/></svg>